HIERARCHY
ROOT Hips
{
  OFFSET 3.13124 94.3669 -3.18751
  CHANNELS  6 Xposition Yposition Zposition Zrotation Xrotation Yrotation
  JOINT LeftUpLeg
  {
    OFFSET 8.64259 1.95398 -2.38835
    CHANNELS 3 Zrotation Xrotation Yrotation
    JOINT LeftLeg
    {
      OFFSET 43.7702 0 0
      CHANNELS 3 Zrotation Xrotation Yrotation
      JOINT LeftFoot
      {
        OFFSET 40.6238 0 0
        CHANNELS 3 Zrotation Xrotation Yrotation
        JOINT LeftToeBase
        {
          OFFSET 12.7242 0 0
          CHANNELS 3 Zrotation Xrotation Yrotation
          End Site
          {
            OFFSET 0 0 0
          }
        }
      }
    }
  }
  JOINT RightUpLeg
  {
    OFFSET -8.2249 1.95398 -2.59336
    CHANNELS 3 Zrotation Xrotation Yrotation
    JOINT RightLeg
    {
      OFFSET 43.5653 0 0
      CHANNELS 3 Zrotation Xrotation Yrotation
      JOINT RightFoot
      {
        OFFSET 40.6238 0 0
        CHANNELS 3 Zrotation Xrotation Yrotation
        JOINT RightToeBase
        {
          OFFSET 12.7242 0 0
          CHANNELS 3 Zrotation Xrotation Yrotation
          End Site
          {
            OFFSET 0 0 0
          }
        }
      }
    }
  }
  JOINT Spine
  {
    OFFSET 0.165834 0.87714 6.61349
    CHANNELS 3 Zrotation Xrotation Yrotation
    JOINT Spine1
    {
      OFFSET 7.38962 1.71661e-005 0
      CHANNELS 3 Zrotation Xrotation Yrotation
      JOINT Spine2
      {
        OFFSET 11.9445 1.14441e-005 0
        CHANNELS 3 Zrotation Xrotation Yrotation
        JOINT Spine3
        {
          OFFSET 14.7254 4.19617e-005 0
          CHANNELS 3 Zrotation Xrotation Yrotation
          JOINT Spine4
          {
            OFFSET 10.9679 0 0
            CHANNELS 3 Zrotation Xrotation Yrotation
            JOINT RightShoulder
            {
              OFFSET 2.46616 -1.6653 3.69651
              CHANNELS 3 Zrotation Xrotation Yrotation
              JOINT RightArm
              {
                OFFSET 13.0012 0 0
                CHANNELS 3 Zrotation Xrotation Yrotation
                JOINT RightForeArm
                {
                  OFFSET 28.7848 1.52588e-005 0
                  CHANNELS 3 Zrotation Xrotation Yrotation
                  JOINT RightHand
                  {
                    OFFSET 26.5688 1.52588e-005 0
                    CHANNELS 3 Zrotation Xrotation Yrotation
                    End Site
                    {
                      OFFSET 0 0 0
                    }
                  }
                }
              }
            }
            JOINT LeftShoulder
            {
              OFFSET 2.38034 -1.29275 -3.75231
              CHANNELS 3 Zrotation Xrotation Yrotation
              JOINT LeftArm
              {
                OFFSET 16.3182 6.10352e-005 0
                CHANNELS 3 Zrotation Xrotation Yrotation
                JOINT LeftForeArm
                {
                  OFFSET 27.0901 0 0
                  CHANNELS 3 Zrotation Xrotation Yrotation
                  JOINT LeftHand
                  {
                    OFFSET 24.5451 1.52588e-005 0
                    CHANNELS 3 Zrotation Xrotation Yrotation
                    End Site
                    {
                      OFFSET 0 0 0
                    }
                  }
                }
              }
            }
            JOINT Neck
            {
              OFFSET 5.0226 -0.0266342 0
              CHANNELS 3 Zrotation Xrotation Yrotation
              JOINT Head
              {
                OFFSET 6.69363 2.86102e-005 0
                CHANNELS 3 Zrotation Xrotation Yrotation
                End Site
                {
                  OFFSET 0 0 0
                }
              }
            }
          }
        }
      }
    }
  }
}
MOTION
Frames:	5
Frame Time:	0.0333333
2.92641 95.8566 -5.22256 -137.566 -89.9992 -137.562 -179.59 1.86163 90.6698 -7.53876 0.263111 0.0340026 62.6904 1.40365 0.711844 28.7808 4.6578e-006 6.19961e-006 179.573 1.8044 89.2907 -7.40674 -0.308816 -0.0209982 62.6337 -1.18269 -0.598988 28.7808 1.43812e-005 2.43346e-005 0.000227583 6.34043 -90.0033 14.1935 8.1928e-006 -6.85399e-007 2.52251 3.25328e-006 -3.66264e-006 -20.0126 0.00553795 -1.44229e-006 -1.59028e-015 0.00553165 -8.73565e-019 101.244 -18.3705 -84.4555 -9.19612 28.4477 -3.93376 -7.33109 -28.5531 -10.8886 2.06119 0.134603 1.83016 -78.7578 -21.3908 94.8179 19.485 -51.3305 -5.01826 2.08955 51.106 -4.37964 -0.717637 -0.0317683 -0.488871 1.75607 0.000939599 0.00503929 -7.41431 0.000383583 -0.0048235 
2.9148 95.8372 -5.21282 -176.165 -89.9921 -176.105 -179.577 2.84483 90.7209 -9.60444 0.301287 0.0338449 63.5585 1.28009 0.660926 28.7808 4.6578e-006 6.19961e-006 179.579 1.75957 89.3557 -7.33954 -0.309332 -0.0209982 62.6106 -1.17067 -0.589421 28.7808 1.43812e-005 2.43346e-005 0.00418294 6.34023 -90.0531 14.1934 -1.17359e-005 -2.97732e-005 2.52247 -1.71297e-005 -3.22145e-005 -20.0127 0.00553795 -3.48828e-005 -3.70051e-005 0.00553165 -3.36012e-005 101.255 -18.2729 -84.4814 -9.04108 28.5033 -3.63072 -7.64916 -28.4752 -11.5627 2.22983 0.153378 2.17538 -78.7302 -21.4454 94.8449 19.6259 -51.2951 -4.89416 2.12372 50.9238 -4.54029 -0.799735 -0.0317688 -0.381317 1.80041 0.0146836 0.0876779 -7.47349 0.000383583 -0.0829589 
2.90039 95.8495 -5.2066 -3.09099 -89.9823 -3.02877 -179.583 2.79355 90.7272 -9.44468 0.248375 0.0308033 63.4455 1.23013 0.630904 28.7808 4.6578e-006 6.19961e-006 179.58 1.56825 89.357 -6.89744 -0.314517 -0.0209982 62.3818 -1.22851 -0.619539 28.7808 1.43812e-005 2.43346e-005 0.00484565 6.33987 -90.0591 14.1942 0.000382874 0.000575793 2.52322 0.000414915 0.000550196 -20.0119 0.00553795 0.00066568 0.000718648 0.00553165 0.000664319 101.29 -18.2704 -84.5137 -9.02639 28.5368 -3.46493 -7.78712 -28.4592 -11.8488 2.27398 0.159734 2.31484 -78.6505 -21.4652 94.9111 19.7007 -51.2869 -4.86251 2.13694 50.8097 -4.62811 -0.783565 -0.0317689 -0.342455 1.93359 0.0119664 0.192114 -7.5989 0.000383581 -0.170413 
2.88383 95.8968 -5.19508 -67.6259 -89.9879 -67.5802 -179.585 1.73625 90.7127 -7.30722 0.143336 0.0203302 62.5774 1.38338 0.702691 28.7808 4.6578e-006 6.19961e-006 179.597 0.823357 89.3646 -5.38878 -0.273602 -0.0209981 61.6379 -1.21016 -0.598804 28.7808 1.43812e-005 2.43346e-005 0.00586134 6.32958 -90.0239 14.2148 0.0109113 0.0165885 2.54381 0.0116239 0.0160895 -19.9914 0.00553795 0.0191054 0.0212946 0.00553165 0.0191005 101.235 -18.345 -84.4907 -9.00609 28.5751 -3.33917 -7.91371 -28.4204 -12.1203 2.31635 0.165411 2.42862 -78.7113 -21.351 94.9124 19.7551 -51.3116 -4.82241 2.16518 50.7178 -4.65868 -0.810354 -0.031769 -0.317184 1.88431 0.0210232 0.180809 -7.63623 0.000396819 -0.182298 
2.86851 95.9107 -5.18987 -15.8748 -89.9521 -15.8643 -179.595 0.871022 90.6828 -5.43182 0.0603034 0.0148565 61.644 1.41381 0.697699 28.7808 4.6578e-006 6.19961e-006 179.605 0.805882 89.334 -5.27229 -0.242224 -0.0209981 61.5838 -1.2379 -0.616904 28.7808 1.43812e-005 2.43346e-005 0.00313509 6.32269 -89.9831 14.2285 0.0129563 0.0223931 2.55755 0.0139288 0.0218073 -19.9776 0.00561785 0.0252046 0.0350344 0.00561167 0.0251998 101.225 -18.3803 -84.5036 -9.05645 28.4973 -3.53642 -7.66345 -28.4391 -11.6049 2.14213 0.150478 2.28509 -78.6723 -21.3027 95.0053 19.7561 -51.3445 -4.89205 2.17258 50.7782 -4.64815 -0.800042 -0.031769 -0.307411 1.96493 0.0315959 0.231968 -7.71954 0.00452411 -0.193639 
